G04 Layer: TopLayer*
G04 EasyEDA v6.5.54, 2026-06-17 23:17:45*
G04 4fb508b3df3c4590a0a85f5a829d2be2,47083fb59e924f2e982a52276fdf08c8,10*
G04 Gerber Generator version 0.2*
G04 Scale: 100 percent, Rotated: No, Reflected: No *
G04 Dimensions in millimeters *
G04 leading zeros omitted , absolute positions ,4 integer and 5 decimal *
%FSLAX45Y45*%
%MOMM*%

%ADD10C,1.0000*%
%ADD11C,0.6000*%
%ADD12C,0.4000*%
%ADD13C,4.4999*%
%ADD14C,0.0134*%

%LPD*%
G36*
X2220518Y-1804060D02*
G01*
X2206396Y-1811172D01*
X2194763Y-1828546D01*
X2166569Y-1882597D01*
X2118614Y-1978558D01*
X2117140Y-1980590D01*
X2010308Y-1983079D01*
X1967484Y-1987854D01*
X1959305Y-1985772D01*
X1942998Y-1957120D01*
X1939899Y-1957120D01*
X1939899Y-1951278D01*
X1934413Y-1945792D01*
X1924608Y-1928825D01*
X1900478Y-1888743D01*
X1897786Y-1886712D01*
X1894839Y-1880565D01*
X1879396Y-1856079D01*
X1876501Y-1849983D01*
X1871573Y-1841804D01*
X1861362Y-1830070D01*
X1843684Y-1822399D01*
X1833524Y-1822399D01*
X1812391Y-1829155D01*
X1808276Y-1832152D01*
X1794154Y-1835200D01*
X1787855Y-1838401D01*
X1761337Y-1847240D01*
X1754276Y-1850999D01*
X1749094Y-1850999D01*
X1738325Y-1856638D01*
X1712366Y-1865477D01*
X1698091Y-1871573D01*
X1690979Y-1875485D01*
X1686610Y-1875485D01*
X1647088Y-1892807D01*
X1631035Y-1901139D01*
X1619148Y-1915820D01*
X1617014Y-1939747D01*
X1625650Y-1989378D01*
X1625650Y-2000707D01*
X1629410Y-2013204D01*
X1633931Y-2045868D01*
X1639925Y-2084679D01*
X1643684Y-2105050D01*
X1641754Y-2113330D01*
X1622552Y-2124252D01*
X1591513Y-2147925D01*
X1561338Y-2172157D01*
X1532839Y-2196896D01*
X1524609Y-2204364D01*
X1518412Y-2207768D01*
X1442974Y-2172970D01*
X1412392Y-2159355D01*
X1369517Y-2140966D01*
X1353718Y-2134666D01*
X1340916Y-2134971D01*
X1324610Y-2143861D01*
X1300124Y-2177034D01*
X1293977Y-2186127D01*
X1287576Y-2194864D01*
X1231747Y-2275535D01*
X1231747Y-2279192D01*
X1228699Y-2280564D01*
X1219504Y-2293670D01*
X1219504Y-2297582D01*
X1216253Y-2298954D01*
X1201521Y-2323439D01*
X1198626Y-2338882D01*
X1203756Y-2358136D01*
X1271879Y-2425496D01*
X1329690Y-2481834D01*
X1332230Y-2491841D01*
X1326438Y-2500985D01*
X1318971Y-2521407D01*
X1313535Y-2533650D01*
X1301597Y-2570378D01*
X1295196Y-2592832D01*
X1286560Y-2627426D01*
X1285341Y-2628696D01*
X1263396Y-2632811D01*
X1234795Y-2638552D01*
X1202182Y-2644495D01*
X1196035Y-2646832D01*
X1169517Y-2650998D01*
X1114399Y-2661361D01*
X1103680Y-2665577D01*
X1093266Y-2676499D01*
X1086916Y-2694838D01*
X1086866Y-2900222D01*
X1093216Y-2919374D01*
X1102969Y-2930550D01*
X1121054Y-2936697D01*
X1145032Y-2940456D01*
X1173581Y-2945231D01*
X1187856Y-2949092D01*
X1214424Y-2952953D01*
X1249121Y-2959455D01*
X1277670Y-2963519D01*
X1287322Y-2968345D01*
X1292910Y-2984652D01*
X1292961Y-2991307D01*
X1298905Y-3011170D01*
X1307490Y-3041802D01*
X1311351Y-3048863D01*
X1311351Y-3053435D01*
X1316990Y-3066288D01*
X1326286Y-3092805D01*
X1329131Y-3096920D01*
X1331569Y-3106826D01*
X1291945Y-3147415D01*
X1249121Y-3190849D01*
X1204925Y-3237280D01*
X1201166Y-3247186D01*
X1201166Y-3265830D01*
X1210157Y-3280562D01*
X1213408Y-3281934D01*
X1213408Y-3286810D01*
X1233627Y-3315258D01*
X1237894Y-3320186D01*
X1237894Y-3322574D01*
X1247038Y-3335680D01*
X1250137Y-3337051D01*
X1250137Y-3340963D01*
X1259332Y-3354019D01*
X1261414Y-3356101D01*
X1287018Y-3394049D01*
X1311503Y-3427526D01*
X1319530Y-3436264D01*
X1319530Y-3439769D01*
X1334008Y-3451860D01*
X1347063Y-3456228D01*
X1367637Y-3451555D01*
X1375613Y-3447491D01*
X1459280Y-3409848D01*
X1471574Y-3404666D01*
X1516888Y-3383635D01*
X1524609Y-3383737D01*
X1545082Y-3403041D01*
X1563370Y-3417265D01*
X1569161Y-3422802D01*
X1617319Y-3459124D01*
X1621231Y-3459124D01*
X1622552Y-3462223D01*
X1635658Y-3471367D01*
X1639214Y-3471367D01*
X1643938Y-3480562D01*
X1639925Y-3505047D01*
X1636014Y-3535679D01*
X1629460Y-3574440D01*
X1619504Y-3646627D01*
X1619504Y-3664661D01*
X1626311Y-3678529D01*
X1640941Y-3691788D01*
X1645716Y-3691788D01*
X1657248Y-3697681D01*
X1672183Y-3704031D01*
X1678432Y-3704031D01*
X1680616Y-3707536D01*
X1708302Y-3716629D01*
X1721154Y-3722420D01*
X1727454Y-3722420D01*
X1729587Y-3725875D01*
X1757273Y-3734968D01*
X1770125Y-3740759D01*
X1777898Y-3740759D01*
X1781759Y-3744264D01*
X1812391Y-3753612D01*
X1826310Y-3759657D01*
X1851304Y-3759911D01*
X1864766Y-3751986D01*
X1884832Y-3721557D01*
X1884832Y-3716629D01*
X1888185Y-3715258D01*
X1906219Y-3685387D01*
X1913331Y-3674465D01*
X1917192Y-3666286D01*
X1938883Y-3633165D01*
X1961337Y-3593744D01*
X1987854Y-3595471D01*
X2008276Y-3599738D01*
X2116429Y-3599992D01*
X2128672Y-3623411D01*
X2131212Y-3625494D01*
X2134412Y-3635654D01*
X2143404Y-3649979D01*
X2146604Y-3660190D01*
X2149094Y-3662222D01*
X2162860Y-3688740D01*
X2183485Y-3727500D01*
X2196033Y-3751986D01*
X2199081Y-3753358D01*
X2199081Y-3758336D01*
X2212340Y-3770579D01*
X2222550Y-3775201D01*
X2231593Y-3777742D01*
X2259279Y-3771341D01*
X2279700Y-3765499D01*
X2298090Y-3760927D01*
X2315718Y-3757168D01*
X2320544Y-3754069D01*
X2342997Y-3748836D01*
X2357272Y-3745280D01*
X2369515Y-3741165D01*
X2389936Y-3735019D01*
X2403144Y-3732276D01*
X2405481Y-3728516D01*
X2413812Y-3728516D01*
X2426665Y-3722776D01*
X2437079Y-3720490D01*
X2452268Y-3705301D01*
X2454554Y-3694836D01*
X2458770Y-3683711D01*
X2455824Y-3676497D01*
X2446121Y-3509162D01*
X2454554Y-3502761D01*
X2469489Y-3494836D01*
X2486406Y-3483610D01*
X2490825Y-3483610D01*
X2497226Y-3473907D01*
X2488082Y-3456076D01*
X2485847Y-3454044D01*
X2458008Y-3398926D01*
X2430322Y-3345891D01*
X2414625Y-3315258D01*
X2411323Y-3313887D01*
X2411323Y-3306368D01*
X2406243Y-3300984D01*
X2378659Y-3245866D01*
X2358237Y-3209137D01*
X2353818Y-3197910D01*
X2350109Y-3197910D01*
X2350109Y-3192729D01*
X2340000Y-3177844D01*
X2330754Y-3180130D01*
X2324608Y-3185007D01*
X2293975Y-3203041D01*
X2267458Y-3215995D01*
X2247036Y-3224580D01*
X2239975Y-3228543D01*
X2235454Y-3228543D01*
X2222550Y-3234385D01*
X2185822Y-3245154D01*
X2159304Y-3251149D01*
X2136851Y-3254654D01*
X2085848Y-3259734D01*
X2042972Y-3257499D01*
X1998065Y-3252876D01*
X1945030Y-3240430D01*
X1938782Y-3237230D01*
X1924608Y-3234182D01*
X1920544Y-3231286D01*
X1900123Y-3223920D01*
X1881733Y-3215995D01*
X1855216Y-3203041D01*
X1853184Y-3200958D01*
X1816455Y-3178860D01*
X1814423Y-3176473D01*
X1794002Y-3162401D01*
X1772005Y-3143859D01*
X1730756Y-3102864D01*
X1718970Y-3088741D01*
X1695043Y-3057347D01*
X1695043Y-3054908D01*
X1685848Y-3041802D01*
X1683816Y-3039770D01*
X1673758Y-3021380D01*
X1667662Y-3008122D01*
X1664411Y-3008122D01*
X1664411Y-3003346D01*
X1651965Y-2976473D01*
X1646021Y-2964942D01*
X1646021Y-2960166D01*
X1640484Y-2949600D01*
X1637690Y-2934665D01*
X1634337Y-2934665D01*
X1631492Y-2913481D01*
X1628698Y-2909163D01*
X1623415Y-2884678D01*
X1619504Y-2854045D01*
X1615440Y-2834436D01*
X1615440Y-2758135D01*
X1621485Y-2721406D01*
X1621536Y-2706776D01*
X1624634Y-2703728D01*
X1629562Y-2680563D01*
X1634845Y-2658110D01*
X1637385Y-2654046D01*
X1640281Y-2640482D01*
X1646021Y-2629560D01*
X1646021Y-2624378D01*
X1649882Y-2617317D01*
X1657959Y-2598928D01*
X1672945Y-2568346D01*
X1683816Y-2547924D01*
X1688896Y-2544673D01*
X1688896Y-2540609D01*
X1693062Y-2535682D01*
X1713382Y-2507945D01*
X1713382Y-2506421D01*
X1722577Y-2495499D01*
X1742998Y-2472486D01*
X1771497Y-2444343D01*
X1789938Y-2429662D01*
X1797507Y-2422093D01*
X1817471Y-2409799D01*
X1817471Y-2406091D01*
X1821332Y-2406091D01*
X1838909Y-2394356D01*
X1867458Y-2378964D01*
X1885848Y-2369921D01*
X1904187Y-2361692D01*
X1924608Y-2354376D01*
X1928672Y-2351481D01*
X1942846Y-2348433D01*
X1949094Y-2345334D01*
X1967484Y-2340559D01*
X1994001Y-2334564D01*
X2028698Y-2330450D01*
X2040534Y-2326487D01*
X2110740Y-2326487D01*
X2122576Y-2330500D01*
X2157272Y-2334412D01*
X2185822Y-2340508D01*
X2226665Y-2352141D01*
X2235555Y-2357120D01*
X2239619Y-2357120D01*
X2267458Y-2369667D01*
X2293975Y-2382621D01*
X2324608Y-2400604D01*
X2330754Y-2405684D01*
X2338882Y-2406548D01*
X2344013Y-2406091D01*
X2344013Y-2400300D01*
X2347214Y-2398928D01*
X2390648Y-2315260D01*
X2418486Y-2260193D01*
X2421229Y-2258060D01*
X2424023Y-2246884D01*
X2427224Y-2246884D01*
X2430018Y-2235708D01*
X2433015Y-2233625D01*
X2455875Y-2188718D01*
X2476347Y-2149957D01*
X2491790Y-2119376D01*
X2497328Y-2112568D01*
X2496058Y-2099513D01*
X2450388Y-2075180D01*
X2446375Y-2070354D01*
X2449880Y-1994865D01*
X2455773Y-1894281D01*
X2452725Y-1877618D01*
X2442413Y-1864156D01*
X2428697Y-1857552D01*
X2418486Y-1853387D01*
X2371547Y-1838706D01*
X2365197Y-1838756D01*
X2361336Y-1835099D01*
X2342997Y-1830781D01*
X2298090Y-1818233D01*
X2271572Y-1811883D01*
X2247036Y-1805533D01*
G37*
G36*
X3789883Y-1877212D02*
G01*
X3787597Y-1879498D01*
X3755237Y-1883867D01*
X3736848Y-1890471D01*
X3732784Y-1893366D01*
X3723233Y-1896262D01*
X3698087Y-1911146D01*
X3665270Y-1943862D01*
X3650640Y-1968347D01*
X3637178Y-1997710D01*
X3345027Y-1998929D01*
X3334816Y-2006092D01*
X3048050Y-2292807D01*
X2495753Y-2293823D01*
X2480462Y-2325471D01*
X2450338Y-2382469D01*
X2454706Y-2387701D01*
X3087878Y-2387600D01*
X3097072Y-2379929D01*
X3097072Y-2375458D01*
X3100882Y-2375458D01*
X3380638Y-2096007D01*
X3390392Y-2093518D01*
X3628694Y-2094992D01*
X3639108Y-2099564D01*
X3644849Y-2117293D01*
X3654399Y-2136698D01*
X3678631Y-2167178D01*
X3704844Y-2188768D01*
X3744468Y-2208428D01*
X3763365Y-2211933D01*
X3779723Y-2216200D01*
X3814419Y-2216200D01*
X3830726Y-2211882D01*
X3847033Y-2208479D01*
X3863390Y-2202281D01*
X3885895Y-2190800D01*
X3905199Y-2176830D01*
X3905199Y-2173427D01*
X3909669Y-2173427D01*
X3922572Y-2158492D01*
X3929684Y-2152142D01*
X3929684Y-2147265D01*
X3932783Y-2145893D01*
X3941216Y-2133650D01*
X3954221Y-2106777D01*
X3954221Y-2100783D01*
X3958031Y-2096922D01*
X3963212Y-2070354D01*
X3963009Y-2021382D01*
X3958386Y-1998929D01*
X3953764Y-1988718D01*
X3948785Y-1976475D01*
X3941013Y-1960168D01*
X3928668Y-1942134D01*
X3898087Y-1911146D01*
X3872280Y-1895906D01*
X3869486Y-1895856D01*
X3859276Y-1890572D01*
X3838244Y-1883664D01*
X3810304Y-1879041D01*
G37*
G36*
X3479698Y-2316480D02*
G01*
X3453180Y-2316886D01*
X3432759Y-2319934D01*
X3414420Y-2324608D01*
X3400094Y-2330856D01*
X3383787Y-2339289D01*
X3363366Y-2352700D01*
X3338372Y-2378557D01*
X3324047Y-2399741D01*
X3315766Y-2417318D01*
X3307283Y-2436469D01*
X3307283Y-2439009D01*
X3302152Y-2443835D01*
X3236874Y-2465476D01*
X3228695Y-2468981D01*
X3181203Y-2483612D01*
X3397148Y-2483612D01*
X3403498Y-2458110D01*
X3411728Y-2440686D01*
X3427476Y-2425293D01*
X3447034Y-2416048D01*
X3453180Y-2412441D01*
X3481628Y-2412187D01*
X3500120Y-2419045D01*
X3506571Y-2424430D01*
X3509314Y-2424430D01*
X3521303Y-2435148D01*
X3531666Y-2450033D01*
X3539794Y-2474468D01*
X3539896Y-2490165D01*
X3533241Y-2513228D01*
X3519830Y-2534259D01*
X3501085Y-2547162D01*
X3478072Y-2555087D01*
X3460089Y-2555087D01*
X3438906Y-2548229D01*
X3428695Y-2541981D01*
X3410305Y-2523439D01*
X3403396Y-2509164D01*
X3397148Y-2483612D01*
X3181203Y-2483612D01*
X3147364Y-2493822D01*
X2363368Y-2493924D01*
X2358999Y-2496921D01*
X2317699Y-2556103D01*
X2298750Y-2583789D01*
X2301036Y-2589784D01*
X3173577Y-2588717D01*
X3191967Y-2581503D01*
X3200095Y-2578049D01*
X3249117Y-2562910D01*
X3256178Y-2559151D01*
X3263392Y-2559100D01*
X3273958Y-2553614D01*
X3289909Y-2550617D01*
X3293973Y-2547264D01*
X3312414Y-2544521D01*
X3321710Y-2563672D01*
X3336340Y-2586583D01*
X3361283Y-2612542D01*
X3387851Y-2629966D01*
X3406241Y-2638348D01*
X3421126Y-2644851D01*
X3432962Y-2644851D01*
X3437686Y-2649575D01*
X3491941Y-2649982D01*
X3532784Y-2637942D01*
X3549091Y-2629763D01*
X3551123Y-2627528D01*
X3566922Y-2619451D01*
X3568903Y-2614269D01*
X3572560Y-2614269D01*
X3599078Y-2589174D01*
X3599078Y-2585872D01*
X3608273Y-2575966D01*
X3627831Y-2536494D01*
X3631996Y-2517292D01*
X3636111Y-2490774D01*
X3633724Y-2450084D01*
X3629710Y-2446070D01*
X3629660Y-2435656D01*
X3623564Y-2423972D01*
X3623564Y-2419451D01*
X3608730Y-2389784D01*
X3605225Y-2389784D01*
X3605225Y-2383739D01*
X3573576Y-2351532D01*
X3551123Y-2337358D01*
X3530752Y-2328062D01*
X3523742Y-2324506D01*
X3506266Y-2319985D01*
G37*
G36*
X2053183Y-2604363D02*
G01*
X2030730Y-2607716D01*
X2010308Y-2612644D01*
X2006447Y-2616301D01*
X2000097Y-2616301D01*
X1975612Y-2629712D01*
X1958848Y-2640482D01*
X1935073Y-2664256D01*
X1913382Y-2697530D01*
X1913382Y-2700375D01*
X1907692Y-2713228D01*
X1900682Y-2735681D01*
X1897430Y-2773832D01*
X1901037Y-2812288D01*
X1905203Y-2820111D01*
X1905203Y-2826715D01*
X1913534Y-2845866D01*
X1917293Y-2852013D01*
X1925878Y-2868422D01*
X1941880Y-2886710D01*
X1941982Y-2889758D01*
X1945741Y-2889758D01*
X1961337Y-2905048D01*
X1974443Y-2914243D01*
X1978710Y-2914243D01*
X1978710Y-2917342D01*
X2013000Y-2932633D01*
X2022754Y-2932633D01*
X2027885Y-2937713D01*
X2098497Y-2937713D01*
X2108301Y-2932887D01*
X2123592Y-2930398D01*
X2123592Y-2926486D01*
X2132787Y-2926334D01*
X2149094Y-2916326D01*
X2158288Y-2911551D01*
X2158288Y-2908147D01*
X2164537Y-2908147D01*
X2166874Y-2902000D01*
X2170785Y-2902000D01*
X2191969Y-2880563D01*
X2200097Y-2870149D01*
X2209292Y-2857246D01*
X2209292Y-2853029D01*
X2213406Y-2853029D01*
X2213457Y-2847898D01*
X2226665Y-2821381D01*
X3858107Y-2820365D01*
X3864914Y-2835656D01*
X3879291Y-2865272D01*
X3882745Y-2865272D01*
X3882745Y-2871063D01*
X3919626Y-2908147D01*
X3925265Y-2908147D01*
X3926636Y-2911195D01*
X3939743Y-2920390D01*
X3945534Y-2920390D01*
X3950614Y-2926486D01*
X3957472Y-2926486D01*
X3961333Y-2930144D01*
X3979722Y-2934411D01*
X3996029Y-2938627D01*
X4040936Y-2938576D01*
X4057243Y-2934919D01*
X4074718Y-2930499D01*
X4113377Y-2911449D01*
X4113377Y-2908147D01*
X4119168Y-2908147D01*
X4156252Y-2871063D01*
X4156252Y-2865272D01*
X4159758Y-2865272D01*
X4174591Y-2835554D01*
X4174591Y-2829356D01*
X4178655Y-2825292D01*
X4182516Y-2807106D01*
X4186732Y-2790799D01*
X4186631Y-2758135D01*
X4179011Y-2718765D01*
X4159300Y-2679242D01*
X4155236Y-2672384D01*
X4142994Y-2658516D01*
X4126636Y-2642514D01*
X4101541Y-2624531D01*
X4065422Y-2610561D01*
X4049115Y-2605481D01*
X3991965Y-2605430D01*
X3969512Y-2612593D01*
X3957269Y-2616911D01*
X3940048Y-2624480D01*
X3916426Y-2638704D01*
X3890619Y-2664256D01*
X3873042Y-2690774D01*
X3858260Y-2722524D01*
X3858260Y-2726486D01*
X2229358Y-2726486D01*
X2221687Y-2717292D01*
X2221534Y-2711500D01*
X2208580Y-2684678D01*
X2200097Y-2672638D01*
X2191969Y-2662428D01*
X2173935Y-2642666D01*
X2147062Y-2624937D01*
X2118512Y-2612644D01*
X2093975Y-2606344D01*
G37*
G36*
X3412388Y-2924454D02*
G01*
X3379724Y-2924962D01*
X3354273Y-2929991D01*
X3330752Y-2937357D01*
X3308299Y-2949346D01*
X3285845Y-2965754D01*
X3265424Y-2987192D01*
X3259328Y-2996336D01*
X3253028Y-3005074D01*
X3245053Y-3021380D01*
X3239668Y-3028137D01*
X3202178Y-3003905D01*
X3195015Y-3001518D01*
X3195015Y-2997911D01*
X3190748Y-2997911D01*
X3179724Y-2990189D01*
X3145028Y-2968345D01*
X3136849Y-2963519D01*
X3101187Y-2940761D01*
X3097072Y-2940761D01*
X3097072Y-2936697D01*
X3092805Y-2936697D01*
X3080410Y-2927502D01*
X2242159Y-2927502D01*
X2237384Y-2932277D01*
X2284018Y-2994863D01*
X2301748Y-3020364D01*
X2302154Y-3021330D01*
X3049117Y-3023412D01*
X3068675Y-3036671D01*
X3074263Y-3036671D01*
X3075635Y-3040075D01*
X3136036Y-3076498D01*
X3147060Y-3083610D01*
X3153156Y-3086404D01*
X3176293Y-3100984D01*
X3325672Y-3100984D01*
X3325825Y-3082594D01*
X3330854Y-3064256D01*
X3337966Y-3050997D01*
X3355746Y-3033217D01*
X3374136Y-3024327D01*
X3391966Y-3020822D01*
X3398418Y-3020364D01*
X3422548Y-3025140D01*
X3438753Y-3035249D01*
X3453892Y-3051505D01*
X3466439Y-3077464D01*
X3466439Y-3108401D01*
X3452469Y-3137712D01*
X3442970Y-3147974D01*
X3421887Y-3160928D01*
X3396386Y-3165551D01*
X3370173Y-3160979D01*
X3353257Y-3150362D01*
X3338271Y-3134766D01*
X3330041Y-3117291D01*
X3325672Y-3100984D01*
X3176293Y-3100984D01*
X3183788Y-3104743D01*
X3185820Y-3107436D01*
X3222396Y-3129534D01*
X3227984Y-3134664D01*
X3232759Y-3134766D01*
X3239668Y-3149955D01*
X3246678Y-3168345D01*
X3262528Y-3195370D01*
X3287928Y-3221380D01*
X3298088Y-3229559D01*
X3310331Y-3237636D01*
X3336086Y-3250996D01*
X3343198Y-3250996D01*
X3347059Y-3254806D01*
X3373577Y-3259988D01*
X3416452Y-3259988D01*
X3442970Y-3254806D01*
X3446830Y-3250996D01*
X3453942Y-3250996D01*
X3479698Y-3237636D01*
X3491941Y-3229559D01*
X3497275Y-3225495D01*
X3509467Y-3214268D01*
X3511550Y-3214268D01*
X3520541Y-3204464D01*
X3528669Y-3194608D01*
X3536950Y-3182620D01*
X3545027Y-3166313D01*
X3547110Y-3164230D01*
X3556254Y-3141726D01*
X3556254Y-3133445D01*
X3561334Y-3128314D01*
X3561334Y-3057296D01*
X3556254Y-3052216D01*
X3556254Y-3042412D01*
X3541014Y-3008122D01*
X3537864Y-3008122D01*
X3537864Y-3002635D01*
X3525621Y-2987903D01*
X3525621Y-2985363D01*
X3502151Y-2962198D01*
X3487877Y-2951022D01*
X3455212Y-2935173D01*
X3442970Y-2930702D01*
G37*
G36*
X2458770Y-3208121D02*
G01*
X2453894Y-3214014D01*
X2480157Y-3264255D01*
X2497683Y-3296920D01*
X2503830Y-3304032D01*
X3049117Y-3304184D01*
X3183788Y-3436518D01*
X3306870Y-3558895D01*
X3727653Y-3558895D01*
X3727653Y-3524707D01*
X3731310Y-3522472D01*
X3733952Y-3508146D01*
X3737864Y-3508146D01*
X3737914Y-3503015D01*
X3753154Y-3486708D01*
X3766261Y-3477514D01*
X3771544Y-3477361D01*
X3781755Y-3471519D01*
X3815181Y-3471367D01*
X3817416Y-3475024D01*
X3831336Y-3477615D01*
X3836314Y-3483610D01*
X3840022Y-3483610D01*
X3854145Y-3496513D01*
X3867454Y-3523437D01*
X3867353Y-3562197D01*
X3856736Y-3584651D01*
X3844036Y-3597859D01*
X3828694Y-3607460D01*
X3805682Y-3614674D01*
X3783787Y-3612692D01*
X3765448Y-3607155D01*
X3760571Y-3603040D01*
X3746296Y-3592829D01*
X3736848Y-3577640D01*
X3734155Y-3577488D01*
X3731412Y-3561181D01*
X3727653Y-3558895D01*
X3306870Y-3558895D01*
X3332784Y-3584651D01*
X3344672Y-3592322D01*
X3637889Y-3591560D01*
X3642207Y-3603040D01*
X3659022Y-3636721D01*
X3662375Y-3636721D01*
X3662375Y-3642156D01*
X3699306Y-3679545D01*
X3705199Y-3679545D01*
X3705199Y-3683406D01*
X3716426Y-3689451D01*
X3734815Y-3698036D01*
X3742131Y-3702151D01*
X3759301Y-3705809D01*
X3775608Y-3710076D01*
X3822547Y-3709974D01*
X3838905Y-3704082D01*
X3846423Y-3704031D01*
X3880713Y-3688791D01*
X3880713Y-3686098D01*
X3890924Y-3683558D01*
X3890924Y-3679545D01*
X3896360Y-3679545D01*
X3924706Y-3652012D01*
X3932783Y-3641547D01*
X3941216Y-3629558D01*
X3954221Y-3602685D01*
X3954221Y-3596690D01*
X3958082Y-3592829D01*
X3962755Y-3568344D01*
X3964787Y-3523437D01*
X3960114Y-3500983D01*
X3953408Y-3478529D01*
X3941064Y-3454044D01*
X3923131Y-3429558D01*
X3898087Y-3406089D01*
X3893312Y-3406089D01*
X3891940Y-3402787D01*
X3866946Y-3387699D01*
X3862324Y-3387699D01*
X3855212Y-3383889D01*
X3830726Y-3376472D01*
X3765448Y-3376472D01*
X3740912Y-3383991D01*
X3726637Y-3389985D01*
X3714394Y-3396538D01*
X3692753Y-3410712D01*
X3673348Y-3429558D01*
X3658717Y-3447897D01*
X3644595Y-3474465D01*
X3637279Y-3493922D01*
X3375609Y-3492804D01*
X3098088Y-3215894D01*
X3085846Y-3208121D01*
G37*
D10*
X5600700Y-5422900D02*
G01*
X5626100Y-5422900D01*
X5956300Y-5753100D01*
X8039100Y-5753100D01*
X8305800Y-6019800D01*
D11*
X6324600Y-5435600D02*
G01*
X6324600Y-5448300D01*
X6464300Y-5588000D01*
X8026400Y-5588000D01*
X8674100Y-5181600D01*
X9080500Y-5181600D01*
X6096000Y-2552700D02*
G01*
X6400800Y-2552700D01*
X6616700Y-2336800D01*
X7594600Y-2336800D01*
X7912100Y-2019300D01*
X8394700Y-2019300D01*
X8394700Y-2032000D01*
X8623300Y-2260600D01*
X9144000Y-2260600D01*
D12*
X7010400Y-2540000D02*
G01*
X7823200Y-2540000D01*
X8102600Y-2260600D01*
X8293100Y-2260600D01*
X8597900Y-2565400D01*
X9347200Y-2565400D01*
D10*
X5588000Y-2527300D02*
G01*
X6007100Y-2108200D01*
X7327900Y-2108200D01*
X7708900Y-1727200D01*
X8509000Y-1727200D01*
X9055100Y-1181100D01*
D13*
G01*
X444500Y-5613374D03*
G01*
X8509000Y-5613374D03*
G01*
X8496300Y-457174D03*
G01*
X444500Y-457174D03*
M02*
